<?xml version="1.0" encoding="UTF-8"?>
<svg version="1.1" xmlns="http://www.w3.org/2000/svg" width="240" height="54">
<path d="M0 0 C79.2 0 158.4 0 240 0 C240 17.82 240 35.64 240 54 C160.8 54 81.6 54 0 54 C0 36.18 0 18.36 0 0 Z " fill="#031A3B" transform="translate(0,0)"/>
<path d="M0 0 C19.47 0 38.94 0 59 0 C59 29 59 29 51.25 39.125 C48.51049327 41.56502661 45.91100429 43.81859481 43 46 C42.31309082 46.5470459 41.62618164 47.0940918 40.91845703 47.65771484 C37.13299445 50.30628614 32.39789818 49.71077142 28 49 C25.42449622 47.58715221 24.02416541 46.18828693 22 44 C18.47910775 45.41730832 17.32653175 46.85831821 15.5 50.125 C14.345 51.40375 13.19 52.6825 12 54 C8.04 54 4.08 54 0 54 C0 36.18 0 18.36 0 0 Z " fill="#021D3D" transform="translate(0,0)"/>
<path d="M0 0 C4.79162409 2.44101605 7.55485953 5.20376293 10 10 C10.25 13.875 10.25 13.875 10 17 C8.0625 17.5625 8.0625 17.5625 6 18 C5 17 5 17 4.75 13.6875 C4.3361457 9.88185096 4.3361457 9.88185096 1.5625 7.625 C-2.28216314 5.18692093 -4.39213663 4.49742667 -9 5 C-11.67311109 6.90928374 -11.67311109 6.90928374 -14 9.5625 C-15.2065625 10.83287109 -15.2065625 10.83287109 -16.4375 12.12890625 C-17.283125 13.07636719 -18.12875 14.02382813 -19 15 C-19.53383301 15.49491943 -20.06766602 15.98983887 -20.61767578 16.49975586 C-24.9974099 20.83972162 -25.72090984 24.34395946 -25.8828125 30.43554688 C-25.88023438 31.42619141 -25.87765625 32.41683594 -25.875 33.4375 C-25.895625 34.45521484 -25.91625 35.47292969 -25.9375 36.52148438 C-25.98432937 39.01514843 -26.0044667 41.50598889 -26 44 C-21.97171484 42.67811023 -19.8713094 41.13767026 -17.1875 37.875 C-16.58292969 37.15054688 -15.97835938 36.42609375 -15.35546875 35.6796875 C-14.68451172 34.84824219 -14.68451172 34.84824219 -14 34 C-10.67966466 34.61592575 -9.91682666 35.07930481 -7.3125 37.5625 C-4.09139715 40.34436155 -1.43489955 40.80354486 2.76953125 40.54296875 C6.85412853 39.54864472 9.22420314 37.03104255 12 34 C12.63292969 33.31550781 13.26585937 32.63101563 13.91796875 31.92578125 C19.43232648 26.06707104 19.43232648 26.06707104 21.4140625 18.55078125 C21.45273437 17.70322266 21.49140625 16.85566406 21.53125 15.98242188 C21.5621875 15.10134766 21.593125 14.22027344 21.625 13.3125 C21.66367187 12.41982422 21.70234375 11.52714844 21.7421875 10.60742188 C21.83640218 8.4051538 21.92201588 6.20289278 22 4 C20.68 4 19.36 4 18 4 C18 5.65 18 7.3 18 9 C16.68 9 15.36 9 14 9 C14 6.03 14 3.06 14 0 C17.96 0 21.92 0 26 0 C28.58561873 23.39625836 28.58561873 23.39625836 22.578125 31.40625 C18.74994397 35.68942703 14.53930952 39.48601192 10 43 C8.96963623 43.82383179 8.96963623 43.82383179 7.91845703 44.66430664 C4.12858501 47.30294113 -0.6030911 46.71061154 -5 46 C-7.57550378 44.58715221 -8.97583459 43.18828693 -11 41 C-14.23577175 42.19843398 -15.11952415 43.17577082 -17.125 46.125 C-18.87941089 48.39249332 -19.63198264 48.9375173 -22.5078125 49.42578125 C-25.0549512 49.43666646 -27.47956229 49.3687307 -30 49 C-32.64201494 46.35798506 -31.28401334 38.86193742 -31.3125 35.3125 C-31.34150391 34.12720703 -31.37050781 32.94191406 -31.40039062 31.72070312 C-31.47949343 20.87144911 -31.47949343 20.87144911 -27 16 C-26.44699219 15.39414062 -25.89398438 14.78828125 -25.32421875 14.1640625 C-24.78410156 13.65617187 -24.24398438 13.14828125 -23.6875 12.625 C-20.44118826 9.49711594 -17.53973411 6.17834048 -14.67578125 2.69921875 C-10.22405665 -1.81476773 -5.83468857 -1.39017797 0 0 Z " fill="#03B7CE" transform="translate(33,3)"/>
<path d="M0 0 C24 0 24 0 31 1 C31 1.33 31 1.66 31 2 C30.14728516 2.11214844 30.14728516 2.11214844 29.27734375 2.2265625 C17.58825304 4.21702536 10.87678981 14.00727486 4 23 C2.64299353 25.71401294 2.8876139 27.84846316 2.90234375 30.8828125 C2.90556641 32.04941406 2.90878906 33.21601562 2.91210938 34.41796875 C2.92048828 35.64128906 2.92886719 36.86460938 2.9375 38.125 C2.94201172 39.35605469 2.94652344 40.58710937 2.95117188 41.85546875 C2.9629867 44.90369392 2.97945972 47.95182314 3 51 C6.3 51.33 9.6 51.66 13 52 C12.67 52.66 12.34 53.32 12 54 C8.04 54 4.08 54 0 54 C0 36.18 0 18.36 0 0 Z " fill="#01193A" transform="translate(0,0)"/>
<path d="M0 0 C4.79162409 2.44101605 7.55485953 5.20376293 10 10 C10.25 13.875 10.25 13.875 10 17 C8.0625 17.5625 8.0625 17.5625 6 18 C5 17 5 17 4.75 13.6875 C4.3361457 9.88185096 4.3361457 9.88185096 1.5625 7.625 C-2.28216314 5.18692093 -4.39213663 4.49742667 -9 5 C-11.67311109 6.90928374 -11.67311109 6.90928374 -14 9.5625 C-15.2065625 10.83287109 -15.2065625 10.83287109 -16.4375 12.12890625 C-17.283125 13.07636719 -18.12875 14.02382813 -19 15 C-19.53383301 15.49491943 -20.06766602 15.98983887 -20.61767578 16.49975586 C-24.9974099 20.83972162 -25.72090984 24.34395946 -25.8828125 30.43554688 C-25.88023438 31.42619141 -25.87765625 32.41683594 -25.875 33.4375 C-25.895625 34.45521484 -25.91625 35.47292969 -25.9375 36.52148438 C-25.98432937 39.01514843 -26.0044667 41.50598889 -26 44 C-26.66 44 -27.32 44 -28 44 C-28.33 44.99 -28.66 45.98 -29 47 C-26.03 47 -23.06 47 -20 47 C-20 47.66 -20 48.32 -20 49 C-21.64574566 49.02688151 -23.29161413 49.04634123 -24.9375 49.0625 C-25.85402344 49.07410156 -26.77054688 49.08570313 -27.71484375 49.09765625 C-30 49 -30 49 -31 48 C-31.31068644 43.77852126 -31.27853937 39.54399433 -31.3125 35.3125 C-31.34150391 34.12720703 -31.37050781 32.94191406 -31.40039062 31.72070312 C-31.47949343 20.87144911 -31.47949343 20.87144911 -27 16 C-26.44699219 15.39414062 -25.89398438 14.78828125 -25.32421875 14.1640625 C-24.78410156 13.65617187 -24.24398438 13.14828125 -23.6875 12.625 C-20.44118826 9.49711594 -17.53973411 6.17834048 -14.67578125 2.69921875 C-10.22405665 -1.81476773 -5.83468857 -1.39017797 0 0 Z " fill="#03B1C8" transform="translate(33,3)"/>
<path d="M0 0 C2.234375 0.9765625 2.234375 0.9765625 4.234375 2.9765625 C4.53497443 5.34165611 4.72952512 7.72098131 4.859375 10.1015625 C4.93414062 11.38289063 5.00890625 12.66421875 5.0859375 13.984375 C5.15941406 15.46550781 5.15941406 15.46550781 5.234375 16.9765625 C9.48345836 15.37809781 12.05663239 12.1635233 14.984375 8.8515625 C15.49097656 8.28824219 15.99757813 7.72492187 16.51953125 7.14453125 C17.76322032 5.76004719 18.99953805 4.36894762 20.234375 2.9765625 C21.224375 3.3065625 22.214375 3.6365625 23.234375 3.9765625 C22.7331426 8.22229577 21.59070155 10.0804385 18.484375 12.9765625 C16.05722868 15.25687079 13.80796856 17.46388414 11.609375 19.9765625 C9.234375 21.9765625 9.234375 21.9765625 6.109375 22.4765625 C3.234375 21.9765625 3.234375 21.9765625 1.56640625 20.89453125 C-0.48755309 17.93707074 -0.05056559 15.32940376 0.046875 11.7890625 C0.07394531 10.51675781 0.10101563 9.24445312 0.12890625 7.93359375 C0.16371094 6.95777344 0.19851562 5.98195313 0.234375 4.9765625 C-3.83587961 8.07637904 -6.86478914 11.37458086 -10.01953125 15.3671875 C-11.765625 16.9765625 -11.765625 16.9765625 -15.765625 16.9765625 C-15.41185392 11.68965021 -12.59715181 9.14045208 -9.015625 5.6015625 C-8.4896875 5.04339844 -7.96375 4.48523438 -7.421875 3.91015625 C-3.49185454 -0.02959199 -3.49185454 -0.02959199 0 0 Z " fill="#03B5CC" transform="translate(27.765625,17.0234375)"/>
<path d="M0 0 C10 0 10 0 13.125 0.875 C15.84331542 3.95575747 15.51630236 6.63060139 15.46875 10.625 C14.91494498 13.43094544 14.34062512 14.37794151 12 16 C9.27492202 16.39078556 6.76878044 16.13616953 4 16 C4 18.64 4 21.28 4 24 C2.68 24 1.36 24 0 24 C0 16.08 0 8.16 0 0 Z " fill="#F3F3F4" transform="translate(69,13)"/>
<path d="M0 0 C2.9375 0.5625 2.9375 0.5625 5.3125 2.125 C7.48205002 5.37932503 7.23201507 7.73380414 6.9375 11.5625 C3.6375 11.5625 0.3375 11.5625 -3.0625 11.5625 C-2.7325 12.2225 -2.4025 12.8825 -2.0625 13.5625 C-0.16716658 14.02773063 -0.16716658 14.02773063 2 14.1875 C3.299375 14.31125 4.59875 14.435 5.9375 14.5625 C5.9375 15.8825 5.9375 17.2025 5.9375 18.5625 C4.33417209 18.64371924 2.72965974 18.70179134 1.125 18.75 C-0.21498047 18.80220703 -0.21498047 18.80220703 -1.58203125 18.85546875 C-4.0625 18.5625 -4.0625 18.5625 -5.82421875 17.23828125 C-8.5183782 13.59224212 -8.51442018 9.93106177 -8.0625 5.5625 C-5.58756641 2.14126827 -4.17986219 0.76772979 0 0 Z " fill="#B5B8C0" transform="translate(127.0625,18.4375)"/>
<path d="M0 0 C2.375 1.5625 2.375 1.5625 4 4 C4.25 7.75 4.25 7.75 4 11 C0.7 11 -2.6 11 -6 11 C-5.67 11.66 -5.34 12.32 -5 13 C-3.10466658 13.46523063 -3.10466658 13.46523063 -0.9375 13.625 C0.361875 13.74875 1.66125 13.8725 3 14 C3 15.32 3 16.64 3 18 C1.39667209 18.08121924 -0.20784026 18.13929134 -1.8125 18.1875 C-3.15248047 18.23970703 -3.15248047 18.23970703 -4.51953125 18.29296875 C-7 18 -7 18 -8.7734375 16.765625 C-10.25794211 14.6286948 -10.5557453 13.14310237 -10.8125 10.5625 C-10.94591797 9.41974609 -10.94591797 9.41974609 -11.08203125 8.25390625 C-10.98594362 5.61378432 -10.43766777 4.2056727 -9 2 C-5.50875983 -0.32749345 -4.10777749 -0.50299316 0 0 Z " fill="#CCCED4" transform="translate(222,19)"/>
<path d="M0 0 C7.38376891 -0.36313618 7.38376891 -0.36313618 9.75 1.03125 C11.6852623 4.07928812 11.31438487 7.20304613 11.1875 10.6875 C11.17396484 11.38939453 11.16042969 12.09128906 11.14648438 12.81445312 C11.11120182 14.54329829 11.05739583 16.27174765 11 18 C9.20866022 18.05391993 7.41686101 18.09275571 5.625 18.125 C4.62726563 18.14820312 3.62953125 18.17140625 2.6015625 18.1953125 C0 18 0 18 -2 16 C-2.375 13.0625 -2.375 13.0625 -2 10 C0.2206051 7.532661 1.43569203 7.03847554 4.75 6.8125 C5.86375 6.9053125 5.86375 6.9053125 7 7 C6.67 6.34 6.34 5.68 6 5 C3.69 5 1.38 5 -1 5 C-0.67 3.35 -0.34 1.7 0 0 Z " fill="#FDFDFD" transform="translate(168,19)"/>
<path d="M0 0 C1.32 0 2.64 0 4 0 C4.33 4.29 4.66 8.58 5 13 C6.32 11.35 7.64 9.7 9 8 C10.32 8.33 11.64 8.66 13 9 C12.484375 9.721875 11.96875 10.44375 11.4375 11.1875 C9.7797496 13.85493893 9.7797496 13.85493893 10.125 16.5625 C11.05509787 19.15348693 12.30003459 20.85656535 14 23 C14 23.66 14 24.32 14 25 C11.75 25.375 11.75 25.375 9 25 C6.6875 22 6.6875 22 5 19 C4.67 20.98 4.34 22.96 4 25 C2.68 25 1.36 25 0 25 C0 16.75 0 8.5 0 0 Z " fill="#F2F3F4" transform="translate(197,12)"/>
<path d="M0 0 C5.61 0 11.22 0 17 0 C17 1.32 17 2.64 17 4 C14.69 4 12.38 4 10 4 C10 10.6 10 17.2 10 24 C8.68 24 7.36 24 6 24 C6 17.4 6 10.8 6 4 C4.02 4 2.04 4 0 4 C0 2.68 0 1.36 0 0 Z " fill="#F2F3F4" transform="translate(139,13)"/>
<path d="M0 0 C0.33 1.65 0.66 3.3 1 5 C-1.31 5 -3.62 5 -6 5 C-6 7.64 -6 10.28 -6 13 C-3.69 13.33 -1.38 13.66 1 14 C0.67 15.32 0.34 16.64 0 18 C-7.24528302 18.60377358 -7.24528302 18.60377358 -10.5 16 C-12.41831364 12.16337272 -12.96644949 9.20490304 -12 5 C-8.56717773 0.00680397 -5.90329885 -0.57875479 0 0 Z " fill="#E1E2E5" transform="translate(117,19)"/>
<path d="M0 0 C1.32 0.33 2.64 0.66 4 1 C3.67 8.92 3.34 16.84 3 25 C2.34 25 1.68 25 1 25 C0.67 25.99 0.34 26.98 0 28 C2.97 28 5.94 28 9 28 C9 28.66 9 29.32 9 30 C7.35425434 30.02688151 5.70838587 30.04634123 4.0625 30.0625 C3.14597656 30.07410156 2.22945313 30.08570312 1.28515625 30.09765625 C-1 30 -1 30 -2 29 C-2.2538237 24.71443207 -2.185229 20.41719147 -2.1875 16.125 C-2.19974609 14.91457031 -2.21199219 13.70414063 -2.22460938 12.45703125 C-2.22654297 11.29816406 -2.22847656 10.13929687 -2.23046875 8.9453125 C-2.23457764 7.87812988 -2.23868652 6.81094727 -2.24291992 5.71142578 C-2 3 -2 3 0 0 Z " fill="#03A5BC" transform="translate(4,22)"/>
<path d="M0 0 C0 1.32 0 2.64 0 4 C-2.31 4.66 -4.62 5.32 -7 6 C-7 7.98 -7 9.96 -7 12 C-4.69 12.66 -2.38 13.32 0 14 C0 15.32 0 16.64 0 18 C-7.4815331 18.36794425 -7.4815331 18.36794425 -9.9375 16.625 C-12.58921071 12.56944245 -12.58084256 8.7393386 -12 4 C-9.04678281 -1.04507937 -5.29447002 -0.35296467 0 0 Z " fill="#E8E9EC" transform="translate(194,19)"/>
<path d="M0 0 C1.76462683 3.08809695 2 4.23312136 2 8 C5.48809191 7.22969878 5.48809191 7.22969878 9 6 C9.33 5.01 9.66 4.02 10 3 C10.99 3 11.98 3 13 3 C13.35555556 8.33333333 13.35555556 8.33333333 12 10.875 C8.74686316 12.70488947 5.68609891 12.18128355 2 12 C2 14.31 2 16.62 2 19 C1.01 19 0.02 19 -1 19 C-1.02683987 16.02077407 -1.04676037 13.04178705 -1.0625 10.0625 C-1.07087891 9.21236328 -1.07925781 8.36222656 -1.08789062 7.48632812 C-1.09111328 6.67744141 -1.09433594 5.86855469 -1.09765625 5.03515625 C-1.10289307 4.2862915 -1.10812988 3.53742676 -1.11352539 2.76586914 C-1 1 -1 1 0 0 Z " fill="#F6F6F7" transform="translate(71,17)"/>
<path d="M0 0 C0.99 0 1.98 0 3 0 C3 1.65 3 3.3 3 5 C1.68 5.33 0.36 5.66 -1 6 C-1.33 9.96 -1.66 13.92 -2 18 C-3.65 18 -5.3 18 -7 18 C-7 12.39 -7 6.78 -7 1 C-5.02 1 -3.04 1 -1 1 C-0.67 0.67 -0.34 0.34 0 0 Z " fill="#F9FAFA" transform="translate(235,19)"/>
<path d="M0 0 C3.3 0 6.6 0 10 0 C10 1.65 10 3.3 10 5 C8.35 5.33 6.7 5.66 5 6 C4.67 9.96 4.34 13.92 4 18 C2.68 18 1.36 18 0 18 C0 12.06 0 6.12 0 0 Z " fill="#DBDCE0" transform="translate(155,19)"/>
<path d="M0 0 C2.375 1.6875 2.375 1.6875 4 4 C4.25 6.75 4.25 6.75 4 9 C3.34 8.01 2.68 7.02 2 6 C1.34 6.66 0.68 7.32 0 8 C-3.625 8.125 -3.625 8.125 -7 8 C-7 7.01 -7 6.02 -7 5 C-7.66 5 -8.32 5 -9 5 C-9 7.64 -9 10.28 -9 13 C-9.66 12.67 -10.32 12.34 -11 12 C-11.17758833 8.09305679 -11.23513741 5.29388671 -9 2 C-5.50875983 -0.32749345 -4.10777749 -0.50299316 0 0 Z " fill="#B9BDC5" transform="translate(222,19)"/>
<path d="M0 0 C0.99 0 1.98 0 3 0 C3 1.65 3 3.3 3 5 C1.68 5.33 0.36 5.66 -1 6 C-1.33 9.96 -1.66 13.92 -2 18 C-3.32 18 -4.64 18 -6 18 C-6 12.39 -6 6.78 -6 1 C-4.35 1 -2.7 1 -1 1 C-0.67 0.67 -0.34 0.34 0 0 Z " fill="#EFEFF1" transform="translate(93,19)"/>
<path d="M0 0 C3.63 0.33 7.26 0.66 11 1 C11 7.6 11 14.2 11 21 C10.01 21.33 9.02 21.66 8 22 C8 16.06 8 10.12 8 4 C6.68 4 5.36 4 4 4 C4 5.65 4 7.3 4 9 C2.68 9 1.36 9 0 9 C0 6.03 0 3.06 0 0 Z " fill="#02AEC6" transform="translate(47,3)"/>
<path d="M0 0 C5.75 1.75 5.75 1.75 8 4 C8.625 6.625 8.625 6.625 9 9 C6.36 9 3.72 9 1 9 C1 9.99 1 10.98 1 12 C-0.32 11.67 -1.64 11.34 -3 11 C-3.36923077 4.6 -3.36923077 4.6 -1.5 1.5625 C-1.005 1.046875 -0.51 0.53125 0 0 Z " fill="#BCC0C8" transform="translate(122,20)"/>
<path d="M0 0 C1.32 0 2.64 0 4 0 C4 5.94 4 11.88 4 18 C2.35 18 0.7 18 -1 18 C-1.02684312 15.18743719 -1.04676188 12.37512759 -1.0625 9.5625 C-1.07087891 8.76005859 -1.07925781 7.95761719 -1.08789062 7.13085938 C-1.0965143 5.08704779 -1.0522815 3.04316098 -1 1 C-0.67 0.67 -0.34 0.34 0 0 Z " fill="#C8CCD1" transform="translate(99,19)"/>
<path d="M0 0 C2.0625 0.4375 2.0625 0.4375 4 1 C3.2265625 2.0828125 3.2265625 2.0828125 2.4375 3.1875 C0.7797496 5.85493893 0.7797496 5.85493893 1.125 8.5625 C2.05509787 11.15348693 3.30003459 12.85656535 5 15 C5 15.66 5 16.32 5 17 C2.75 17.375 2.75 17.375 0 17 C-2.3125 14 -2.3125 14 -4 11 C-4.66 12.32 -5.32 13.64 -6 15 C-6.125 11.625 -6.125 11.625 -6 8 C-5.34 7.34 -4.68 6.68 -4 6 C-2.98812105 4.34051852 -1.9873454 2.67419438 -1 1 C-0.67 0.67 -0.34 0.34 0 0 Z " fill="#ECEDEE" transform="translate(206,20)"/>
<path d="M0 0 C-1.98 0.99 -1.98 0.99 -4 2 C-2.35 2.33 -0.7 2.66 1 3 C1.93423645 6.01031744 2.04449911 6.86650268 1 10 C-1.76250036 11.38125018 -3.94731099 11.19079306 -7 11 C-9 9 -9 9 -9.375 6.0625 C-9 3 -9 3 -7.3125 1.125 C-4.66729453 -0.16185671 -2.90566174 -0.24213848 0 0 Z " fill="#E1E3E6" transform="translate(175,26)"/>
<path d="M0 0 C3.63 0 7.26 0 11 0 C11.0867562 4.29154022 11.1403089 8.58285668 11.1875 12.875 C11.21263672 14.09832031 11.23777344 15.32164063 11.26367188 16.58203125 C11.27333984 17.74863281 11.28300781 18.91523438 11.29296875 20.1171875 C11.31653442 21.73536377 11.31653442 21.73536377 11.34057617 23.38623047 C11.17199097 24.68004639 11.17199097 24.68004639 11 26 C10.01 26.66 9.02 27.32 8 28 C6.68 27.34 5.36 26.68 4 26 C4.48339844 25.5153125 4.96679688 25.030625 5.46484375 24.53125 C7.61707809 20.98252773 7.490536 17.53683773 7.5625 13.5 C7.6713024 8.75299167 7.81588478 5.36823045 10 1 C6.7 1 3.4 1 0 1 C0 0.67 0 0.34 0 0 Z " fill="#02BDD5" transform="translate(48,3)"/>
<path d="M0 0 C1.98 0 3.96 0 6 0 C7.125 3.75 7.125 3.75 6 6 C6.02308617 8.11620405 6.02308617 8.11620405 6.3125 10.4375 C6.39113281 11.21996094 6.46976563 12.00242187 6.55078125 12.80859375 C6.91386649 15.27847118 6.91386649 15.27847118 9 18 C7.68 18.33 6.36 18.66 5 19 C4.12808053 17.61518672 3.27809616 16.21654754 2.4375 14.8125 C1.96183594 14.03519531 1.48617187 13.25789063 0.99609375 12.45703125 C-0.22103259 9.45478627 0.00716375 8.04835653 1 5 C1.66 4.01 2.32 3.02 3 2 C2.01 1.34 1.02 0.68 0 0 Z " fill="#091A3A" transform="translate(206,19)"/>
<path d="M0 0 C0.33 1.65 0.66 3.3 1 5 C-1.31 5 -3.62 5 -6 5 C-6.33 7.31 -6.66 9.62 -7 12 C-7.33 12 -7.66 12 -8 12 C-8 10.02 -8 8.04 -8 6 C-8.99 5.67 -9.98 5.34 -11 5 C-8.45499142 -0.63537615 -5.97208347 -0.11059414 0 0 Z " fill="#D7D9DD" transform="translate(117,19)"/>
<path d="M0 0 C2.31 0.33 4.62 0.66 7 1 C7.04254356 2.99954746 7.04080783 5.00041636 7 7 C6 8 6 8 2.9375 8.0625 C1.968125 8.041875 0.99875 8.02125 0 8 C0 5.36 0 2.72 0 0 Z " fill="#0B1F3F" transform="translate(73,17)"/>
<path d="M0 0 C3.53677664 -0.32152515 5.3962104 -0.4131192 8.375 1.625 C10.4131192 4.6037896 10.32152515 6.46322336 10 10 C8.125 9.8125 8.125 9.8125 6 9 C5.31867549 7.33927151 4.65257873 5.672233 4 4 C1.98264795 2.65589738 1.98264795 2.65589738 0 2 C0 1.34 0 0.68 0 0 Z " fill="#EAEBED" transform="translate(124,19)"/>
<path d="M0 0 C0.33 0 0.66 0 1 0 C1.33 1.65 1.66 3.3 2 5 C2.99 5 3.98 5 5 5 C5 8.96 5 12.92 5 17 C3.35 17 1.7 17 0 17 C0 11.39 0 5.78 0 0 Z " fill="#ADB1BA" transform="translate(228,20)"/>
<path d="M0 0 C0.33 0.66 0.66 1.32 1 2 C1.99 2 2.98 2 4 2 C4 4.31 4 6.62 4 9 C2.0625 9.5625 2.0625 9.5625 0 10 C-1 9 -1 9 -1.1328125 7.1875 C-1.13023438 6.465625 -1.12765625 5.74375 -1.125 5 C-1.12757812 4.278125 -1.13015625 3.55625 -1.1328125 2.8125 C-1 1 -1 1 0 0 Z " fill="#03A7BE" transform="translate(39,11)"/>
<path d="M0 0 C0.66 0 1.32 0 2 0 C2 0.99 2 1.98 2 3 C7.3086849 2.41825155 7.3086849 2.41825155 12 0 C12.33 1.65 12.66 3.3 13 5 C9.37 5 5.74 5 2 5 C1.67 5.66 1.34 6.32 1 7 C0.67 4.69 0.34 2.38 0 0 Z " fill="#FCFCFC" transform="translate(213,24)"/>
<path d="M0 0 C2.64 0 5.28 0 8 0 C7.01 0.495 7.01 0.495 6 1 C6.33 2.32 6.66 3.64 7 5 C4.36 5 1.72 5 -1 5 C-0.67 3.35 -0.34 1.7 0 0 Z " fill="#D2D4D9" transform="translate(168,19)"/>
<path d="M0 0 C-0.66 1.32 -1.32 2.64 -2 4 C-3.32 3.67 -4.64 3.34 -6 3 C-6 2.67 -6 2.34 -6 2 C-8.97 1.505 -8.97 1.505 -12 1 C-12 0.67 -12 0.34 -12 0 C-7.6835078 -0.76173392 -4.25566547 -1.16063604 0 0 Z " fill="#04A6BE" transform="translate(43,44)"/>
<path d="M0 0 C1.32 0.66 2.64 1.32 4 2 C4 3.32 4 4.64 4 6 C3.01 6 2.02 6 1 6 C0.67 6.99 0.34 7.98 0 9 C0 7.35 0 5.7 0 4 C-0.66 3.67 -1.32 3.34 -2 3 C-1.34 2.01 -0.68 1.02 0 0 Z " fill="#EDEDEF" transform="translate(80,14)"/>
<path d="M0 0 C1.65 0 3.3 0 5 0 C5.33 0.66 5.66 1.32 6 2 C4.68 2 3.36 2 2 2 C2 3.65 2 5.3 2 7 C2.66 7.33 3.32 7.66 4 8 C2.68 8 1.36 8 0 8 C0 5.36 0 2.72 0 0 Z " fill="#232E48" transform="translate(73,17)"/>
<path d="M0 0 C2.31 0 4.62 0 7 0 C7.33 1.65 7.66 3.3 8 5 C5.36 4.01 2.72 3.02 0 2 C0 1.34 0 0.68 0 0 Z " fill="#E7E7EA" transform="translate(110,19)"/>
<path d="M0 0 C0.33 1.32 0.66 2.64 1 4 C-1.64 4 -4.28 4 -7 4 C-7 3.34 -7 2.68 -7 2 C-4.69 1.34 -2.38 0.68 0 0 Z " fill="#F2F2F3" transform="translate(193,33)"/>
<path d="M0 0 C1.98 0 3.96 0 6 0 C6.625 1.875 6.625 1.875 7 4 C6.34 4.66 5.68 5.32 5 6 C2.875 5.625 2.875 5.625 1 5 C1.66 4.01 2.32 3.02 3 2 C2.01 1.34 1.02 0.68 0 0 Z " fill="#2D3A54" transform="translate(206,19)"/>
<path d="M0 0 C0 0.99 0 1.98 0 3 C-2.64 3 -5.28 3 -8 3 C-8 2.34 -8 1.68 -8 1 C-5.29120665 -0.35439668 -2.99066732 -0.06501451 0 0 Z " fill="#F2F3F4" transform="translate(117,34)"/>
<path d="M0 0 C1.32 0 2.64 0 4 0 C3.67 1.65 3.34 3.3 3 5 C1.68 4.67 0.36 4.34 -1 4 C-0.67 2.68 -0.34 1.36 0 0 Z " fill="#29334D" transform="translate(171,29)"/>
<path d="M0 0 C1.98 0.495 1.98 0.495 4 1 C4 2.32 4 3.64 4 5 C2.35 4.67 0.7 4.34 -1 4 C-0.67 2.68 -0.34 1.36 0 0 Z " fill="#DCDEE1" transform="translate(99,12)"/>
<path d="M0 0 C1.9375 0.3125 1.9375 0.3125 4 1 C4.33 1.99 4.66 2.98 5 4 C4.02149805 5.02104551 3.02019573 6.0206121 2 7 C1.67 7 1.34 7 1 7 C0.67 4.69 0.34 2.38 0 0 Z " fill="#EDEEF0" transform="translate(174,20)"/>
<path d="M0 0 C0.99 0 1.98 0 3 0 C3.99 1.98 4.98 3.96 6 6 C4.68 6.33 3.36 6.66 2 7 C0.5393715 4.35261084 0 3.10551666 0 0 Z " fill="#182643" transform="translate(209,31)"/>
<path d="M0 0 C1.98 0 3.96 0 6 0 C6 0.99 6 1.98 6 3 C4.02 3 2.04 3 0 3 C0 2.01 0 1.02 0 0 Z " fill="#F7F7F8" transform="translate(126,34)"/>
<path d="M0 0 C0.66 0 1.32 0 2 0 C2.66 1.65 3.32 3.3 4 5 C2.35 5 0.7 5 -1 5 C-0.67 3.35 -0.34 1.7 0 0 Z " fill="#E2E4E7" transform="translate(207,32)"/>
<path d="M0 0 C0.99 0 1.98 0 3 0 C3 1.65 3 3.3 3 5 C1.35 4.67 -0.3 4.34 -2 4 C-1.34 2.68 -0.68 1.36 0 0 Z " fill="#E5E7E9" transform="translate(235,19)"/>
<path d="M0 0 C2 2 2 2 2.125 4.625 C2.08375 5.40875 2.0425 6.1925 2 7 C1.01 7 0.02 7 -1 7 C-2 4 -2 4 -1.0625 1.8125 C-0.5365625 0.9153125 -0.5365625 0.9153125 0 0 Z " fill="#F3F3F4" transform="translate(177,30)"/>
</svg>
